<svg xmlns="http://www.w3.org/2000/svg" viewBox="0 0 16 16" fill="none">
  <rect x="1" y="1" width="14" height="14" rx="1.5" fill="#78b0c8"/>
  <!-- Curly braces -->
  <path d="M5.5 4C4.5 4 4 4.8 4 5.5V7c0 .5-.5 1-1 1 .5 0 1 .5 1 1v1.5c0 .7.5 1.5 1.5 1.5" stroke="#0e1a22" stroke-width="1.2" fill="none" stroke-linecap="round"/>
  <path d="M10.5 4c1 0 1.5.8 1.5 1.5V7c0 .5.5 1 1 1-.5 0-1 .5-1 1v1.5c0 .7-.5 1.5-1.5 1.5" stroke="#0e1a22" stroke-width="1.2" fill="none" stroke-linecap="round"/>
</svg>
