<svg xmlns="http://www.w3.org/2000/svg" viewBox="0 0 16 16" fill="none">
  <!-- Folder body: Material-style tab+body, teal-green -->
  <path fill="#6ec4ac" d="m6.922 3.768-.644-.536A1 1 0 0 0 5.638 3H2a1 1 0 0 0-1 1v8a1 1 0 0 0 1 1h12a1 1 0 0 0 1-1V5a1 1 0 0 0-1-1H7.562a1 1 0 0 1-.64-.232"/>
  <!-- Open book badge: two pages meeting at spine -->
  <path fill="#d8e8ef" d="M5 7.5 Q6.5 7 8 7.5 L8 11 Q6.5 10.5 5 11 Z"/>
  <path fill="#d8e8ef" d="M8 7.5 Q9.5 7 11 7.5 L11 11 Q9.5 10.5 8 11 Z"/>
</svg>
